# xmcd
#
# Track frame offsets: 
#        150
#        16655
#        30664
#        45006
#        58781
#        70152
#        84353
#        101327
#        116550
#        134132
#        147189
#        164153
#        182986
#        201520
#        216798
#        229420
#        243442
#
# Disc length: 3381 seconds
#
# Revision: 0
# Processed by: cddbd v1.5.2PL0 Copyright (c) Steve Scherf et al.
# Submitted via: ExactAudioCopyFreeDBPlugin 1.0
#
DISCID=f40d3311
DTITLE=Various Artist - Oasis Country Volume 5 Disc 2
DYEAR=2004
DGENRE=Country
TTITLE0=Beargrass - What's with the Hat
TTITLE1=Claude Diamond - Half My Doublewide
TTITLE2=Bell Dora - Sick, Sad, and Sorry
TTITLE3=Ken Davis - She's Bad
TTITLE4=J.R. Baker - Back Home
TTITLE5=Mark Coleman - Please Don't Hate Me
TTITLE6=Randy Whitt - Calm Down Marlaina
TTITLE7=Drew Kennedy - Long Highway
TTITLE8=Moonlight Rodeo - Steal Your Thunder
TTITLE9=Vikki Lee - For July
TTITLE10=The Pioneers - All I Need
TTITLE11=Charlie Wiener - Shut Up and Leave
TTITLE12=Gary Gene Bolton - Whatever Happened to Main Street
TTITLE13=Rick Devin - Oh, Susanna
TTITLE14=The Tod Barrett Project - To Whom It May Concern
TTITLE15=Alanso Wilson - Go Away You Hurricane
TTITLE16=Yampa Valley Boys - The Farewell Song
EXTD=
EXTT0=
EXTT1=
EXTT2=
EXTT3=
EXTT4=
EXTT5=
EXTT6=
EXTT7=
EXTT8=
EXTT9=
EXTT10=
EXTT11=
EXTT12=
EXTT13=
EXTT14=
EXTT15=
EXTT16=
PLAYORDER=
